<svg xmlns="http://www.w3.org/2000/svg"
     width="1618"
     height="225"
     viewBox="0 0 1618 225">
  <defs>
    <style>
      .cls-1 {
        fill: white;
      }

      .cls-1,
      .cls-2,
      .cls-3,
      .cls-4 {
        fill-rule: evenodd;
      }

      .cls-2 {
        fill: #5161f1;
      }

      .cls-3 {
        fill: #c350db;
      }

      .cls-4 {
        fill: #efb114;
      }

      .cls-2, .cls-3, .cls-4 {
        fill: rgb(0, 106, 200);
      }
    </style>
  </defs>
  <path id="WOODLAND"
        class="cls-1"
        d="M153.462,84.049l-13.6,96.2q-1,8.2-1.8,19.6h-4.2q-0.4-5-2.8-19.8l-14.8-86.6a10.882,10.882,0,0,0-3.5-6.8,10.262,10.262,0,0,0-7.1-2.6h-26.4a10.531,10.531,0,0,0-7.3,2.6,10.869,10.869,0,0,0-3.5,6.8l-14.8,86.4q-2.4,14.4-3,20h-4q-0.6-11-1.8-20l-13.4-95.8H0.262l21.8,129.6a9.863,9.863,0,0,0,3.9,6.1,11.593,11.593,0,0,0,7.1,2.3h29.2a11.582,11.582,0,0,0,7.3-2.4,9.46,9.46,0,0,0,3.7-6.2l14.8-90q0.6-3.4,1.5-10.2t0.9-7.4h3.8q0.8,8.6,2.4,17.4l15,90.2a9.6,9.6,0,0,0,3.6,6.2,11.166,11.166,0,0,0,7.2,2.4h29.2a11.483,11.483,0,0,0,7.2-2.3,10.043,10.043,0,0,0,3.8-6.1l21.8-129.6h-31Zm45.2,69q0,41,12.9,56.3t46.1,15.3q33.2,0,46.2-15.3t13-56.3q0-41-13-56.3t-46.2-15.3q-33.2,0-46.1,15.3T198.66,153.049Zm86,0q0,27.4-5.7,37.2t-21.3,9.8q-15.6,0-21.3-9.8t-5.7-37.2q0-27.4,5.7-37.2t21.3-9.8q15.6,0,21.3,9.8T284.66,153.049Zm50.8,0q0,41,12.9,56.3t46.1,15.3q33.2,0,46.2-15.3t13-56.3q0-41-13-56.3t-46.2-15.3q-33.2,0-46.1,15.3T335.458,153.049Zm86,0q0,27.4-5.7,37.2t-21.3,9.8q-15.6,0-21.3-9.8t-5.7-37.2q0-27.4,5.7-37.2t21.3-9.8q15.6,0,21.3,9.8T421.458,153.049Zm109,70.8q33,0,45.9-15.2t12.9-55.6q0-40.4-12.9-55.6t-45.9-15.2q-25.2,0-53.6,1.8v138q28.4,1.8,53.6,1.8h0Zm0-117.8q15.4,0,21.1,9.9t5.7,37.1q0,27.2-5.7,37t-21.1,9.8q-4.4,0-12.1-.1t-11.1-.1v-93.4Zm82-22v109.2q0,13.4,7.8,21.4t23.8,8q38.2,0,58.4-2.2l-1.4-23.2h-47.4q-5.8,0-8.3-2.4t-2.5-7.8v-103h-30.4Zm191.6,138h31l-39.8-130q-2-8-10.6-8h-28.8a11.215,11.215,0,0,0-6.8,2.2,9.546,9.546,0,0,0-3.8,5.8l-39.8,130h31.2l10-36.2h47.4Zm-51-59.8,11.6-42.2q0.6-2.2,1.6-6.6t1.4-6.4h5.4q0.4,3,2.8,13l11.6,42.2h-34.4Zm183.8-78.2v79.4q0,7.6,1.2,23.2h-2q-5-12.2-10-22.2l-35-71.4a20.741,20.741,0,0,0-5-6.9,11.161,11.161,0,0,0-7.2-2.1h-18.6q-11,0-11,11v127h29v-82a159.7,159.7,0,0,0-1.4-22h2.2q1.6,6.8,8.4,21.4l36.2,73.6a20.7,20.7,0,0,0,5,6.9,11.15,11.15,0,0,0,7.2,2.1h19q10.8,0,10.8-11v-127h-28.8Zm110.4,139.8q33,0,45.9-15.2t12.9-55.6q0-40.4-12.9-55.6t-45.9-15.2q-25.2,0-53.6,1.8v138q28.4,1.8,53.6,1.8h0Zm0-117.8q15.4,0,21.1,9.9t5.7,37.1q0,27.2-5.7,37t-21.1,9.8q-4.395,0-12.1-.1t-11.1-.1v-93.4Z" />
  <path id="S"
        class="cls-2"
        d="M1483.26,140.751a13.607,13.607,0,0,0,4.2,1.7,32.35,32.35,0,0,0,5.2.8c1.8,0.134,3.44.2,4.9,0.2a11.821,11.821,0,0,0,1.7-.1,8.528,8.528,0,0,1,1.1-.1,3.517,3.517,0,0,1,.4,1.6,10.773,10.773,0,0,1-.4,2.2q18.21,1.2,37,1.2h16.2q3.4-.2,6.8-0.4-6.795.6-13.6,0.8h-15.2q-8.19,0-16.2-.3-7.995-.3-16.2-0.7l-0.2,1c0,0.8.74,1.469,2.2,2a21.571,21.571,0,0,0,5.2,1.1c2,0.2,4.04.331,6.1,0.4s3.7,0.1,4.9.1h20q7.005,0,15.7-.3a159.179,159.179,0,0,0,17.6-1.6,122.147,122.147,0,0,0,17.3-3.8,53.507,53.507,0,0,0,15-7,34.946,34.946,0,0,0,10.6-11.3q4.005-6.8,4-16.6a33.991,33.991,0,0,0-4.3-17.4,43.2,43.2,0,0,0-11.4-12.8,73.951,73.951,0,0,0-16.1-9.2,190.763,190.763,0,0,0-18.5-6.7q-9.495-2.9-18.5-5.3t-16.1-5a45.232,45.232,0,0,1-11.4-5.8q-4.29-3.2-4.3-7.8a11.459,11.459,0,0,1,3.2-8.3,22.785,22.785,0,0,1,7.9-5.2,41.1,41.1,0,0,1,9.8-2.6,66.769,66.769,0,0,1,8.9-.7,42.39,42.39,0,0,1,11.5,1.6q5.7,1.6,10.7,3.5t9.1,3.5a20.04,20.04,0,0,0,7.1,1.6q2.4,0,2.4-2.6a7.711,7.711,0,0,0-1.9-4.8,26.591,26.591,0,0,0-4.6-4.5,35.915,35.915,0,0,0-5.6-3.6q-2.895-1.5-4.7-2.3l0.6-1.8a29.082,29.082,0,0,0,3.2,1.2q2.4,0.8,5,1.7t4.9,1.6a13.447,13.447,0,0,0,3.1.7,1.306,1.306,0,0,0,1.3-.6,4.144,4.144,0,0,0,.4-1.4,10.976,10.976,0,0,1,.3-1.5,1.937,1.937,0,0,1,1.4-1.1,101.527,101.527,0,0,0-22.9-10,86.135,86.135,0,0,0-24.7-3.6,83.931,83.931,0,0,0-17.8,2,57.566,57.566,0,0,0-16.9,6.5,39.064,39.064,0,0,0-12.6,11.6q-4.89,7.1-4.9,17.3,0,10.4,4.4,17.8a44.157,44.157,0,0,0,11.6,12.8,69.229,69.229,0,0,0,16.4,9q9.21,3.6,18.9,6.4t18.9,5.2a124.21,124.21,0,0,1,16.4,5.4,42.956,42.956,0,0,1,11.6,6.8,11.919,11.919,0,0,1,4.4,9.4,7.658,7.658,0,0,1-2.8,5.9,26.712,26.712,0,0,1-6.7,4.3,49.487,49.487,0,0,1-8,2.9q-4.1,1.1-6.7,1.7,2.2-.4,6.4-1.4a54.5,54.5,0,0,0,8.3-2.7,28.973,28.973,0,0,0,7.1-4.1,7.035,7.035,0,0,0,3-5.6,14.248,14.248,0,0,0-4.1-10,38.986,38.986,0,0,0-10.6-7.8,87.576,87.576,0,0,0-14.5-5.9q-8-2.5-15.9-4.5t-14.7-3.7a99.448,99.448,0,0,1-11-3.3v-1.2q4.2,1.4,11.2,3t14.9,3.6q7.9,2,16.1,4.6a85.486,85.486,0,0,1,14.7,6.1,42.428,42.428,0,0,1,10.7,7.9,14.327,14.327,0,0,1,4.2,10.2,9.431,9.431,0,0,1-3.1,7,26.553,26.553,0,0,1-7.4,5,58.776,58.776,0,0,1-8.9,3.3c-3.06.869-5.6,1.5-7.6,1.9l-0.6-2.4a129.319,129.319,0,0,1-14.8,1.5q-7.2.3-14.6,0.3-6.195,0-12.4-.1t-12.6-.1a56.406,56.406,0,0,0-7.5.5,54.953,54.953,0,0,0-7.3,1.5q10.2,1,20.5,1.7t20.5,0.7q3.21,0,8.8-.1,5.61-.1,12.2-0.7t13.3-1.8a62.118,62.118,0,0,0,12.2-3.4,28.154,28.154,0,0,0,9-5.5,10.676,10.676,0,0,0,3.5-8.1,17.03,17.03,0,0,0-1.8-7.9,25.43,25.43,0,0,0-4.7-6.4,29.217,29.217,0,0,0-6.5-4.9q-1.395-.8-3-1.6a20.542,20.542,0,0,1,3,1.4,29.719,29.719,0,0,1,6.9,4.5,22.119,22.119,0,0,1,5,6.2,16.259,16.259,0,0,1,1.9,7.9,11.6,11.6,0,0,1-4,9,32.248,32.248,0,0,1-10.4,6,75.844,75.844,0,0,1-14.2,3.7q-7.8,1.3-15.4,1.9t-14,.7c-4.26.069-7.6,0.1-10,.1q-9.6,0-19.2-.8t-19.2-2c-0.66.269-1.63,0.6-2.9,1s-2.53.869-3.8,1.4a17.519,17.519,0,0,0-3.3,1.8,2.782,2.782,0,0,0-1.4,2.2A3.185,3.185,0,0,0,1483.26,140.751Zm113.9-2.3a62.844,62.844,0,0,1-7,2.8c2.4-1.066,4.74-2.2,7-3.4a36.242,36.242,0,0,0,7.2-5,19.492,19.492,0,0,1-7.2,5.6h0Z" />
  <path id="M"
        class="cls-3"
        d="M1386.76,83.851a12.055,12.055,0,0,0,7.2-2.9,39.981,39.981,0,0,0,7.4-7.6,121.521,121.521,0,0,0,7.1-10.4q3.51-5.7,6.4-11.2,2.91-5.5,4.9-10.3l3.4-7.8,0.8-1.8,0.8,1.8q-3.795,9.6-6.7,17.1a76.514,76.514,0,0,1-6.7,13.5,56.624,56.624,0,0,1-9.1,11,75.355,75.355,0,0,1-13.9,10l-1.6.4q-3.99-2.4-8-4.6l-8-4.4v1.2q4.41,2.4,8.7,4.7t8.5,4.9a28.19,28.19,0,0,0,12.5-8,78.754,78.754,0,0,0,10.3-13.6,121.629,121.629,0,0,0,8-15.6q3.4-8,5.6-14l0.8-2a144.8,144.8,0,0,1,6.7,15.6q2.91,8,5.7,16.2l-1.4,4q2.8,9.8,4.7,19.4t3.8,19.1q1.9,9.5,4.4,19a116.37,116.37,0,0,0,6.7,18.7q-1.8-14.6-4.2-29.5t-5.8-29.6q-3.39-14.7-8-29a231.69,231.69,0,0,0-11-27.9l0.2-1a243.294,243.294,0,0,1,10.7,27.7q5.1,15.7,9.1,32.4t6.9,33q2.91,16.3,4.1,29.5c0.27,0.666.7,1.631,1.3,2.9s1.27,2.6,2,4a19.415,19.415,0,0,0,2.4,3.6,3.534,3.534,0,0,0,2.5,1.5,2.129,2.129,0,0,0,1.9-1.5,12.634,12.634,0,0,0,1-3.5,38.731,38.731,0,0,0,.4-3.9c0.07-1.269.1-2.1,0.1-2.5a22.232,22.232,0,0,0-.6-5q-0.6-2.6-1-5l2.8-1.6q-2.79-18.8-6.6-37-3.6-17.6-8.6-35.4,5.61,17.8,9.4,35.8,3.81,18.4,7,37.2a2.466,2.466,0,0,0,2.1-1.2,3.772,3.772,0,0,0,.5-1.6,79.443,79.443,0,0,0-1.1-13.2q-1.1-6.6-2.6-13.2t-3.3-13.1q-1.8-6.5-3-12.9-2.595-12.4-5.9-23.2t-7.4-21.1q-4.1-10.3-8.9-20.5t-10.2-21.4q-5.4,1-10.9,1.8a65.732,65.732,0,0,0-10.5,2.4q-2.4,6-4.8,13t-5,14.1q-2.6,7.1-5.7,13.7a91.72,91.72,0,0,1-6.7,12,134.149,134.149,0,0,0-13.6-25.8,95.553,95.553,0,0,0-18.6-20.2q-5,2-10.9,3.8a29.615,29.615,0,0,0-9.3,4.4q-0.6,6-1.4,12.6t-1.9,13.3q-1.1,6.7-2.6,13.2t-3.3,12.1q-1.995,6.4-5.7,15.8-3.69,9.4-7.3,19.3t-6.3,19.1q-2.7,9.2-2.7,15a8.163,8.163,0,0,0,.4,2.3,3.24,3.24,0,0,0,1.4,1.9q1.41,0,4-3.6,2.61-3.6,5.3-8t5-8.6c1.54-2.8,2.5-4.6,2.9-5.4l1.8,0.6c-0.4.934-.93,2.169-1.6,3.7s-1.3,3.1-1.9,4.7a47.865,47.865,0,0,0-1.5,4.7,15.913,15.913,0,0,0-.6,3.9,2.173,2.173,0,0,0,1.8,2.4l2.2-.4,1.6,1.2a126.638,126.638,0,0,1,9.4-20.9,141.072,141.072,0,0,0,9.6-20.7,208.021,208.021,0,0,0,7.6-26q3-13.4,5-26.8,3.4,7,6.7,15.3t6.9,15.3v1.2l1.8,0.8-1-1.2a21.341,21.341,0,0,0-2.8-10.6,112.706,112.706,0,0,1-5.4-11.2l1.4,0.8q1.2,2.4,2.7,5.1a60.082,60.082,0,0,1,2.7,5.5q1.2,2.8,2.1,5.6a17.078,17.078,0,0,1,.9,5.2l0.4,0.6Zm55-54.8-4.4-9.2-2.2-6.2c0.4,0.669.94,1.7,1.6,3.1s1.37,2.834,2.1,4.3,1.44,2.9,2.1,4.3a29.294,29.294,0,0,1,1.4,3.3Zm-20.2,1.6q-1.59,4.2-3.3,8.4-1.695,4.2-3.7,8.4l6.8-18Zm-4.2-19.6,2.4,6.4-1,.2-2.6-6.6h1.2Zm-78,10.4-2.2,11.8a47.95,47.95,0,0,0,.4-5.4l0.4-6Zm71.4-7.8h0.8l-5.2,12.4Zm19.6-6.6-0.4-2.2,4.6,7.6Zm-3.8,21.4-0.2,1-0.8-1.6,0.4-.8Z" />
  <path id="W"
        class="cls-4"
        d="M1196.86,105.451q1.41,5.2,3.2,11.5t4.1,12.5a122.85,122.85,0,0,0,5.2,12,49.488,49.488,0,0,0,6.8,10.3,32.244,32.244,0,0,0,8.8,7.2,22.632,22.632,0,0,0,11.1,2.7,22.139,22.139,0,0,0,14.7-5.5,55.811,55.811,0,0,0,11.4-13.4,89.338,89.338,0,0,0,8.1-16.7q3.21-8.8,5-15.2l3-1.2q3-9.6,6.2-20.4t5.8-21.8q2.61-11,4.2-21.9a144.807,144.807,0,0,0,1.6-21.1q-1.59,6.8-4.2,18.8-2.595,12-6.1,26.1t-8.1,28.9a234.527,234.527,0,0,1-9.8,26,205.513,205.513,0,0,0,9.2-26.2q4.41-14.8,7.6-29.1,3.21-14.3,5.5-26.3,2.31-12,3.9-18.8c0.14-.531.4-1.466,0.8-2.8a12.165,12.165,0,0,0,.6-2.6c0-.531-0.06-1.631-0.2-3.3s-0.33-3.366-.6-5.1a17.551,17.551,0,0,0-1.3-4.6q-0.9-2-2.1-2-1.59,0-3.2,3a45.774,45.774,0,0,0-2.9,6.9q-1.29,3.9-2.3,7.6-0.99,3.7-1.2,5.1l-1.6-1.6q-3.99,18.8-8.1,37.6a347.437,347.437,0,0,1-10.3,37.2,568.924,568.924,0,0,0,17.2-76l-1-.2q-1.59,0-3,3.3a53.417,53.417,0,0,0-2.6,8.4q-1.2,5.1-2.3,11.4t-2.1,12.5q-0.99,6.2-1.9,11.5c-0.6,3.534-1.16,6.3-1.7,8.3q-0.795,2.6-2.4,8.1-1.59,5.5-3.9,12.2t-5.1,13.8a129.826,129.826,0,0,1-5.9,13,57.626,57.626,0,0,1-6.2,9.7c-2.06,2.534-4.1,3.8-6.1,3.8l-1.8-.2a37.189,37.189,0,0,1-4.8-9.1q-2.19-5.7-4.2-12.4-1.995-6.7-3.8-13.8t-3.8-13.3a92.787,92.787,0,0,0-4.2-10.9q-2.19-4.7-4.8-6.5l-21.4.6c-0.26.134-1.1,2.2-2.5,6.2s-3.03,8.969-4.9,14.9-3.76,12.334-5.7,19.2-3.5,13.234-4.7,19.1a85.78,85.78,0,0,1-9.2-19.3q-3.99-11.5-7.1-24-3.09-12.5-5.3-25-2.19-12.5-4-22.4t-3.1-16.1c-0.86-4.131-1.7-6.2-2.5-6.2q-2.4,0-3.9,3.4a34.955,34.955,0,0,0-2.3,7.9,70.278,70.278,0,0,0-1,8.8q-0.2,4.3-.2,5.9l-1.8.6c0-.666-0.06-1.866-0.2-3.6s-0.33-3.531-.6-5.4a32.977,32.977,0,0,0-1.1-5.1,4.964,4.964,0,0,0-1.7-2.9l-5,.6q0.21,8.8,1.3,20.5,1.11,11.7,3.3,24.3t5.5,25.5a161.754,161.754,0,0,0,8.2,24.2,105.05,105.05,0,0,0,11.4,20.2,47.346,47.346,0,0,0,15.1,13.7l17-3a36.026,36.026,0,0,0,6.3-8.7,78.4,78.4,0,0,0,4.7-10.8,99.406,99.406,0,0,0,3.3-11.5q1.3-5.8,1.9-10.6a123.133,123.133,0,0,0,3.8,15.4,77.4,77.4,0,0,0,6.8,15.7,44.315,44.315,0,0,0,10.3,12.3,25.381,25.381,0,0,0,14.7,5.6,29.956,29.956,0,0,1-14.9-7.3,47.758,47.758,0,0,1-9.8-13,96.706,96.706,0,0,1-6.6-16.3q-2.7-8.8-5.3-17.4c0.27-1.331.54-2.466,0.8-3.4h0Zm27.7,50.1a30.445,30.445,0,0,1-8.1-7.2,51.616,51.616,0,0,1-6.3-10.2,105.785,105.785,0,0,1-4.7-11.7q-1.995-6-3.5-11.9t-2.3-10.7c0.8,2.4,1.74,5.369,2.8,8.9s2.34,7.234,3.8,11.1,3.1,7.769,4.9,11.7a58.375,58.375,0,0,0,6.2,10.6,32.538,32.538,0,0,0,7.8,7.6,16.666,16.666,0,0,0,9.5,2.9,19.188,19.188,0,0,0,11.6-3.8,88.122,88.122,0,0,0,10.4-9,45.377,45.377,0,0,1-10.3,10.5,19.845,19.845,0,0,1-11.7,3.9A19.258,19.258,0,0,1,1224.56,155.551Zm25,3.4a40.78,40.78,0,0,0,10.1-9.4,66.65,66.65,0,0,0,7.6-12.5q1.8-3.8,3.2-7.4c-1.06,2.269-2.2,4.534-3.4,6.8a60.684,60.684,0,0,1-7.7,11.8,51.028,51.028,0,0,1-10.1,9.3,30.744,30.744,0,0,1-12.4,5.1A22.828,22.828,0,0,0,1249.56,158.951Zm-14.9-15.7a9.214,9.214,0,0,0,6.1-2.8,36.737,36.737,0,0,0,5.8-6.8,71.884,71.884,0,0,0,5-8.7q2.31-4.7,3.9-8.3-1.59,3.8-3.8,8.5a75.051,75.051,0,0,1-4.9,8.9,37,37,0,0,1-5.8,7.1,9.239,9.239,0,0,1-6.3,2.9,6.217,6.217,0,0,1-3.6-1.1,12.1,12.1,0,0,1-2.9-2.9,28.4,28.4,0,0,1-2.3-3.8c-0.53-1.331-1-2.6-1.4-3.8a28.383,28.383,0,0,0,3.4,6.6q2.4,3.2,4.8,3.8a6.528,6.528,0,0,0,2,.4h0Zm-40.2-25.2c0.27-1.331.5-2.631,0.7-3.9s0.44-2.566.7-3.9l0.8,2.4a24.908,24.908,0,0,0-.6,2.7c-0.13.869-.26,1.769-0.4,2.7h-1.2Zm76,11.6c0.27-.666.54-1.331,0.8-2a17.166,17.166,0,0,0-.8,2h0Zm0.8-2c0.27-.531.54-1.131,0.8-1.8-0.26.534-.53,1.134-0.8,1.8h0Zm0.8-1.8a4.8,4.8,0,0,1,.6-1.4,4.8,4.8,0,0,0-.6,1.4h0Z" />
</svg>
